<svg xmlns="http://www.w3.org/2000/svg" xmlns:xlink="http://www.w3.org/1999/xlink" width="400" zoomAndPan="magnify" viewBox="0 0 300 74.999997" height="100" preserveAspectRatio="xMidYMid meet" version="1.0"><defs><g/><clipPath id="e6b2a1eb9a"><path d="M 60.6875 28 L 105.21875 28 L 105.21875 66.007812 L 60.6875 66.007812 Z M 60.6875 28 " clip-rule="nonzero"/></clipPath><clipPath id="89bcf0c9bc"><path d="M 89 5.988281 L 103 5.988281 L 103 29 L 89 29 Z M 89 5.988281 " clip-rule="nonzero"/></clipPath></defs><g clip-path="url(#e6b2a1eb9a)"><path fill="#000000" d="M 98.949219 55.6875 L 79.816406 55.6875 L 83.007812 50.171875 L 86.195312 44.644531 L 89.386719 39.121094 L 86.195312 33.601562 L 83.007812 28.078125 L 79.816406 33.601562 L 76.632812 39.125 L 73.441406 44.644531 L 70.253906 50.167969 L 67.066406 55.6875 L 60.691406 66.734375 L 98.949219 66.734375 L 102.136719 61.210938 L 105.328125 55.6875 Z M 98.949219 55.6875 " fill-opacity="1" fill-rule="nonzero"/></g><g clip-path="url(#89bcf0c9bc)"><path fill="#ffbd59" d="M 95.761719 28.078125 L 102.136719 17.03125 L 95.761719 5.988281 L 89.386719 17.03125 L 92.570312 22.554688 Z M 95.761719 28.078125 " fill-opacity="1" fill-rule="nonzero"/></g><g fill="#000000" fill-opacity="1"><g transform="translate(101.614223, 50.961438)"><g><path d="M 1.828125 -0.328125 C 2.398438 -0.328125 2.890625 -0.53125 3.296875 -0.9375 C 3.703125 -1.351562 3.914062 -1.847656 3.9375 -2.421875 L 3.9375 -20.765625 C 3.914062 -21.335938 3.703125 -21.828125 3.296875 -22.234375 C 2.890625 -22.640625 2.398438 -22.84375 1.828125 -22.84375 L 1.390625 -22.84375 L 1.390625 -23.171875 L 11.453125 -23.171875 L 11.421875 -22.84375 L 11.03125 -22.84375 C 10.457031 -22.84375 9.957031 -22.640625 9.53125 -22.234375 C 9.113281 -21.828125 8.90625 -21.335938 8.90625 -20.765625 L 8.90625 -1.421875 L 13.25 -1.421875 C 14.851562 -1.421875 16.203125 -1.882812 17.296875 -2.8125 C 18.390625 -3.738281 19.203125 -5.050781 19.734375 -6.75 L 20.0625 -6.75 L 18.546875 0 L 1.390625 0 L 1.390625 -0.328125 Z M 1.828125 -0.328125 "/></g></g></g><g fill="#000000" fill-opacity="1"><g transform="translate(122.009725, 50.961438)"><g><path d="M 1.125 -0.328125 L 1.515625 -0.328125 C 2.046875 -0.328125 2.5 -0.5 2.875 -0.84375 C 3.25 -1.1875 3.4375 -1.597656 3.4375 -2.078125 L 3.4375 -17.78125 C 3.4375 -18.269531 3.25 -18.679688 2.875 -19.015625 C 2.5 -19.359375 2.046875 -19.53125 1.515625 -19.53125 L 1.125 -19.53125 L 1.125 -19.859375 L 10.53125 -19.859375 L 10.53125 -19.53125 L 10.125 -19.53125 C 9.625 -19.53125 9.1875 -19.363281 8.8125 -19.03125 C 8.4375 -18.707031 8.238281 -18.300781 8.21875 -17.8125 L 8.21875 -2.078125 C 8.238281 -1.578125 8.4375 -1.160156 8.8125 -0.828125 C 9.1875 -0.492188 9.625 -0.328125 10.125 -0.328125 L 10.53125 -0.328125 L 10.53125 0 L 1.125 0 Z M 1.125 -0.328125 "/></g></g></g><g fill="#000000" fill-opacity="1"><g transform="translate(133.664299, 50.961438)"><g><path d="M 4.078125 -2.359375 C 2.109375 -4.203125 1.125 -6.734375 1.125 -9.953125 C 1.125 -13.179688 2.109375 -15.710938 4.078125 -17.546875 C 6.054688 -19.378906 8.78125 -20.296875 12.25 -20.296875 C 13.789062 -20.296875 15.3125 -20.15625 16.8125 -19.875 C 18.320312 -19.601562 19.539062 -19.234375 20.46875 -18.765625 L 20.46875 -13.515625 L 20.203125 -13.515625 C 19.222656 -17.148438 16.90625 -18.96875 13.25 -18.96875 C 10.945312 -18.96875 9.191406 -18.164062 7.984375 -16.5625 C 6.785156 -14.96875 6.1875 -12.738281 6.1875 -9.875 C 6.1875 -7.019531 6.734375 -4.804688 7.828125 -3.234375 C 8.921875 -1.671875 10.472656 -0.890625 12.484375 -0.890625 C 13.585938 -0.890625 14.578125 -1.148438 15.453125 -1.671875 C 16.335938 -2.191406 16.925781 -2.9375 17.21875 -3.90625 L 17.25 -7.875 C 17.25 -8.300781 17.117188 -8.628906 16.859375 -8.859375 C 16.609375 -9.085938 16.253906 -9.203125 15.796875 -9.203125 L 15.328125 -9.203125 L 15.328125 -9.46875 L 23.84375 -9.46875 L 23.84375 -9.203125 L 23.4375 -9.203125 C 22.46875 -9.203125 21.984375 -8.757812 21.984375 -7.875 L 21.984375 -3.4375 C 21.210938 -2.445312 19.910156 -1.550781 18.078125 -0.75 C 16.242188 0.0390625 14.234375 0.4375 12.046875 0.4375 C 8.710938 0.40625 6.054688 -0.523438 4.078125 -2.359375 Z M 4.078125 -2.359375 "/></g></g></g><g fill="#000000" fill-opacity="1"><g transform="translate(157.834296, 50.961438)"><g><path d="M 15.828125 -19.859375 L 25.125 -19.859375 L 25.125 -19.53125 L 24.5625 -19.53125 C 24.0625 -19.53125 23.640625 -19.375 23.296875 -19.0625 C 22.953125 -18.757812 22.769531 -18.363281 22.75 -17.875 L 22.75 -3.40625 C 22.75 -2.039062 22.835938 -0.914062 23.015625 -0.03125 L 23.078125 0.4375 L 22.78125 0.4375 L 7.578125 -12.984375 L 7.578125 -2.015625 C 7.597656 -1.535156 7.78125 -1.132812 8.125 -0.8125 C 8.46875 -0.488281 8.894531 -0.328125 9.40625 -0.328125 L 9.96875 -0.328125 L 9.96875 0 L 0.6875 0 L 0.6875 -0.328125 L 1.21875 -0.328125 C 1.726562 -0.328125 2.160156 -0.488281 2.515625 -0.8125 C 2.867188 -1.132812 3.046875 -1.535156 3.046875 -2.015625 L 3.046875 -16.59375 C 3.046875 -17.914062 2.957031 -19.003906 2.78125 -19.859375 L 2.71875 -20.328125 L 3.015625 -20.296875 L 18.171875 -6.953125 L 18.171875 -17.84375 C 18.171875 -18.332031 18 -18.734375 17.65625 -19.046875 C 17.320312 -19.367188 16.898438 -19.53125 16.390625 -19.53125 L 15.828125 -19.53125 Z M 15.828125 -19.859375 "/></g></g></g><g fill="#000000" fill-opacity="1"><g transform="translate(183.626661, 50.961438)"><g><path d="M 22.6875 -19.53125 L 22.21875 -19.53125 C 21.800781 -19.53125 21.445312 -19.398438 21.15625 -19.140625 C 20.863281 -18.890625 20.707031 -18.566406 20.6875 -18.171875 L 20.6875 -7.21875 C 20.6875 -4.832031 19.957031 -2.957031 18.5 -1.59375 C 17.050781 -0.238281 14.882812 0.4375 12 0.4375 C 9.125 0.4375 6.882812 -0.222656 5.28125 -1.546875 C 3.675781 -2.878906 2.875 -4.75 2.875 -7.15625 L 2.875 -18.140625 C 2.875 -18.535156 2.722656 -18.863281 2.421875 -19.125 C 2.128906 -19.394531 1.773438 -19.53125 1.359375 -19.53125 L 0.890625 -19.53125 L 0.890625 -19.859375 L 9.609375 -19.859375 L 9.609375 -19.53125 L 9.140625 -19.53125 C 8.722656 -19.53125 8.367188 -19.394531 8.078125 -19.125 C 7.785156 -18.863281 7.640625 -18.535156 7.640625 -18.140625 L 7.640625 -7.390625 C 7.640625 -5.359375 8.109375 -3.765625 9.046875 -2.609375 C 9.992188 -1.460938 11.316406 -0.890625 13.015625 -0.890625 C 14.710938 -0.890625 16.050781 -1.429688 17.03125 -2.515625 C 18.019531 -3.597656 18.515625 -5.097656 18.515625 -7.015625 L 18.515625 -18.140625 C 18.484375 -18.554688 18.320312 -18.890625 18.03125 -19.140625 C 17.75 -19.398438 17.398438 -19.53125 16.984375 -19.53125 L 16.5625 -19.53125 L 16.5625 -19.859375 L 22.6875 -19.859375 Z M 22.6875 -19.53125 "/></g></g></g><g fill="#000000" fill-opacity="1"><g transform="translate(206.93581, 50.961438)"><g><path d="M 28.4375 -0.328125 L 28.90625 -0.328125 L 28.90625 0 L 19.703125 0 L 19.703125 -0.328125 L 20.15625 -0.328125 C 20.582031 -0.328125 20.890625 -0.46875 21.078125 -0.75 C 21.265625 -1.039062 21.332031 -1.34375 21.28125 -1.65625 L 20 -11.125 L 14.734375 -2.75 C 13.941406 -1.488281 13.546875 -0.363281 13.546875 0.625 L 13.234375 0.625 L 5.59375 -10.953125 L 4.46875 -1.65625 C 4.425781 -1.34375 4.503906 -1.039062 4.703125 -0.75 C 4.898438 -0.46875 5.195312 -0.328125 5.59375 -0.328125 L 6.0625 -0.328125 L 6.0625 0 L -0.234375 0 L -0.234375 -0.328125 L 0.234375 -0.328125 C 0.785156 -0.328125 1.265625 -0.488281 1.671875 -0.8125 C 2.078125 -1.132812 2.3125 -1.570312 2.375 -2.125 L 4.96875 -20.296875 L 5.234375 -20.296875 L 14.59375 -6.296875 L 23.375 -20.296875 L 23.671875 -20.296875 L 26.3125 -1.953125 C 26.425781 -1.441406 26.679688 -1.039062 27.078125 -0.75 C 27.472656 -0.46875 27.925781 -0.328125 28.4375 -0.328125 Z M 28.4375 -0.328125 "/></g></g></g><g fill="#000000" fill-opacity="1"><g transform="translate(235.509379, 50.961438)"><g><path d="M 1.421875 -22.109375 C 2.148438 -22.835938 3.03125 -23.203125 4.0625 -23.203125 C 5.101562 -23.203125 5.988281 -22.835938 6.71875 -22.109375 C 7.445312 -21.390625 7.8125 -20.507812 7.8125 -19.46875 C 7.8125 -18.425781 7.445312 -17.539062 6.71875 -16.8125 C 5.988281 -16.09375 5.101562 -15.734375 4.0625 -15.734375 C 3.03125 -15.734375 2.148438 -16.09375 1.421875 -16.8125 C 0.691406 -17.539062 0.328125 -18.425781 0.328125 -19.46875 C 0.328125 -20.507812 0.691406 -21.390625 1.421875 -22.109375 Z M 1.921875 -17.328125 C 2.492188 -16.742188 3.203125 -16.453125 4.046875 -16.453125 C 4.898438 -16.453125 5.617188 -16.742188 6.203125 -17.328125 C 6.785156 -17.910156 7.078125 -18.617188 7.078125 -19.453125 C 7.078125 -20.296875 6.785156 -21.007812 6.203125 -21.59375 C 5.617188 -22.1875 4.898438 -22.484375 4.046875 -22.484375 C 3.203125 -22.484375 2.492188 -22.1875 1.921875 -21.59375 C 1.347656 -21.007812 1.0625 -20.296875 1.0625 -19.453125 C 1.0625 -18.617188 1.347656 -17.910156 1.921875 -17.328125 Z M 5.59375 -20.46875 C 5.59375 -19.800781 5.265625 -19.4375 4.609375 -19.375 C 4.804688 -19.320312 5.070312 -19.035156 5.40625 -18.515625 C 5.75 -18.003906 6.03125 -17.710938 6.25 -17.640625 L 6.25 -17.578125 L 5.734375 -17.578125 C 5.148438 -17.578125 4.695312 -17.84375 4.375 -18.375 C 4.320312 -18.414062 4.253906 -18.535156 4.171875 -18.734375 C 3.929688 -19.242188 3.773438 -19.5 3.703125 -19.5 L 3.703125 -19.5625 L 4.046875 -19.5625 C 4.441406 -19.582031 4.625 -19.863281 4.59375 -20.40625 C 4.570312 -20.945312 4.332031 -21.21875 3.875 -21.21875 L 3.515625 -21.21875 L 3.515625 -17.984375 C 3.515625 -17.753906 3.632812 -17.640625 3.875 -17.640625 L 3.9375 -17.640625 L 3.9375 -17.578125 L 2.15625 -17.578125 L 2.15625 -17.640625 L 2.21875 -17.640625 C 2.4375 -17.640625 2.554688 -17.753906 2.578125 -17.984375 L 2.578125 -21.125 C 2.554688 -21.34375 2.4375 -21.453125 2.21875 -21.453125 L 2.15625 -21.453125 L 2.15625 -21.515625 L 4.171875 -21.546875 C 4.585938 -21.546875 4.925781 -21.445312 5.1875 -21.25 C 5.457031 -21.050781 5.59375 -20.789062 5.59375 -20.46875 Z M 5.59375 -20.46875 "/></g></g></g><g fill="#8f8783" fill-opacity="1"><g transform="translate(113.034701, 63.986864)"><g><path d="M 1.71875 -4 L 3.59375 -4 C 4.0625 -4 4.445312 -4.160156 4.75 -4.484375 C 5.0625 -4.796875 5.21875 -5.191406 5.21875 -5.671875 C 5.21875 -6.140625 5.070312 -6.523438 4.78125 -6.828125 C 4.476562 -7.128906 4.082031 -7.28125 3.59375 -7.28125 L 1.71875 -7.28125 Z M 6.046875 -5.640625 C 6.046875 -4.929688 5.796875 -4.347656 5.296875 -3.890625 C 4.804688 -3.421875 4.203125 -3.1875 3.484375 -3.1875 L 1.71875 -3.1875 L 1.71875 0 L 0.890625 0 L 0.890625 -8.078125 L 3.484375 -8.078125 C 4.191406 -8.078125 4.796875 -7.847656 5.296875 -7.390625 C 5.796875 -6.929688 6.046875 -6.347656 6.046875 -5.640625 Z M 6.046875 -5.640625 "/></g></g></g><g fill="#8f8783" fill-opacity="1"><g transform="translate(120.68996, 63.986864)"><g><path d="M 1.71875 -3.984375 L 3.59375 -3.984375 C 4.0625 -3.984375 4.445312 -4.144531 4.75 -4.46875 C 5.0625 -4.789062 5.21875 -5.191406 5.21875 -5.671875 C 5.21875 -6.128906 5.070312 -6.515625 4.78125 -6.828125 C 4.476562 -7.128906 4.082031 -7.28125 3.59375 -7.28125 L 1.71875 -7.28125 Z M 6.046875 -5.640625 C 6.046875 -4.929688 5.796875 -4.347656 5.296875 -3.890625 C 4.847656 -3.472656 4.3125 -3.242188 3.6875 -3.203125 L 6.171875 0 L 5.0625 0 L 2.703125 -3.1875 L 1.71875 -3.1875 L 1.71875 0 L 0.890625 0 L 0.890625 -8.078125 L 3.484375 -8.078125 C 4.203125 -8.078125 4.804688 -7.847656 5.296875 -7.390625 C 5.796875 -6.921875 6.046875 -6.335938 6.046875 -5.640625 Z M 6.046875 -5.640625 "/></g></g></g><g fill="#8f8783" fill-opacity="1"><g transform="translate(128.523256, 63.986864)"><g><path d="M 5.6875 0 L 0.890625 0 L 0.890625 -8.078125 L 5.6875 -8.078125 L 5.6875 -7.296875 L 1.71875 -7.296875 L 1.71875 -4.421875 L 5.5625 -4.421875 L 5.5625 -3.640625 L 1.71875 -3.640625 L 1.71875 -0.765625 L 5.6875 -0.765625 Z M 5.6875 0 "/></g></g></g><g fill="#8f8783" fill-opacity="1"><g transform="translate(136.475232, 63.986864)"><g><path d="M 3.140625 -3.8125 C 1.492188 -4.1875 0.671875 -4.890625 0.671875 -5.921875 C 0.671875 -6.679688 0.929688 -7.253906 1.453125 -7.640625 C 1.984375 -8.003906 2.609375 -8.1875 3.328125 -8.1875 C 4.898438 -8.1875 5.832031 -7.601562 6.125 -6.4375 L 5.21875 -6.4375 C 5.0625 -7.132812 4.429688 -7.484375 3.328125 -7.484375 C 2.546875 -7.484375 2.003906 -7.253906 1.703125 -6.796875 C 1.578125 -6.617188 1.515625 -6.398438 1.515625 -6.140625 C 1.515625 -5.640625 1.785156 -5.253906 2.328125 -4.984375 C 2.578125 -4.847656 3.113281 -4.675781 3.9375 -4.46875 C 4.757812 -4.25 5.359375 -4.007812 5.734375 -3.75 C 6.242188 -3.382812 6.5 -2.875 6.5 -2.21875 C 6.5 -1.40625 6.179688 -0.789062 5.546875 -0.375 C 5.003906 -0.0195312 4.335938 0.15625 3.546875 0.15625 C 1.753906 0.15625 0.71875 -0.523438 0.4375 -1.890625 L 1.421875 -1.890625 C 1.578125 -1.035156 2.285156 -0.609375 3.546875 -0.609375 C 4.453125 -0.609375 5.082031 -0.859375 5.4375 -1.359375 C 5.582031 -1.554688 5.65625 -1.820312 5.65625 -2.15625 C 5.65625 -2.488281 5.523438 -2.765625 5.265625 -2.984375 C 4.890625 -3.285156 4.179688 -3.5625 3.140625 -3.8125 Z M 3.140625 -3.8125 "/></g></g></g><g fill="#8f8783" fill-opacity="1"><g transform="translate(144.664585, 63.986864)"><g><path d="M 0.234375 -7.328125 L 0.234375 -8.09375 L 4.984375 -8.09375 L 4.984375 -7.328125 L 3.03125 -7.328125 L 3.03125 -0.03125 L 2.203125 -0.03125 L 2.203125 -7.328125 Z M 0.234375 -7.328125 "/></g></g></g><g fill="#8f8783" fill-opacity="1"><g transform="translate(151.263547, 63.986864)"><g><path d="M 1.71875 0 L 0.890625 0 L 0.890625 -8.078125 L 1.71875 -8.078125 Z M 1.71875 0 "/></g></g></g><g fill="#8f8783" fill-opacity="1"><g transform="translate(155.251396, 63.986864)"><g><path d="M 8.859375 -3.78125 L 8.78125 -3.28125 C 8.601562 -2.300781 8.125 -1.492188 7.34375 -0.859375 C 6.550781 -0.222656 5.664062 0.09375 4.6875 0.09375 C 4.113281 0.09375 3.578125 -0.015625 3.078125 -0.234375 C 2.566406 -0.453125 2.125 -0.75 1.75 -1.125 C 1.375 -1.5 1.078125 -1.941406 0.859375 -2.453125 C 0.640625 -2.953125 0.53125 -3.492188 0.53125 -4.078125 C 0.53125 -4.640625 0.640625 -5.175781 0.859375 -5.6875 C 1.078125 -6.195312 1.375 -6.640625 1.75 -7.015625 C 2.125 -7.390625 2.566406 -7.6875 3.078125 -7.90625 C 3.578125 -8.125 4.085938 -8.234375 4.609375 -8.234375 C 5.578125 -8.234375 6.425781 -7.957031 7.15625 -7.40625 C 7.90625 -6.863281 8.414062 -6.144531 8.6875 -5.25 L 7.796875 -5.25 C 7.546875 -5.90625 7.140625 -6.425781 6.578125 -6.8125 C 6.003906 -7.195312 5.375 -7.390625 4.6875 -7.390625 C 3.769531 -7.390625 2.988281 -7.066406 2.34375 -6.421875 C 1.6875 -5.773438 1.359375 -4.992188 1.359375 -4.078125 C 1.359375 -3.160156 1.6875 -2.375 2.34375 -1.71875 C 2.976562 -1.0625 3.757812 -0.734375 4.6875 -0.734375 C 5.414062 -0.734375 6.082031 -0.941406 6.6875 -1.359375 C 7.28125 -1.785156 7.695312 -2.347656 7.9375 -3.046875 L 4.65625 -3.046875 L 4.65625 -3.78125 Z M 8.859375 -3.78125 "/></g></g></g><g fill="#8f8783" fill-opacity="1"><g transform="translate(166.016244, 63.986864)"><g><path d="M 5.6875 0 L 0.890625 0 L 0.890625 -8.078125 L 5.6875 -8.078125 L 5.6875 -7.296875 L 1.71875 -7.296875 L 1.71875 -4.421875 L 5.5625 -4.421875 L 5.5625 -3.640625 L 1.71875 -3.640625 L 1.71875 -0.765625 L 5.6875 -0.765625 Z M 5.6875 0 "/></g></g></g><g fill="#8f8783" fill-opacity="1"><g transform="translate(173.968218, 63.986864)"><g/></g></g><g fill="#8f8783" fill-opacity="1"><g transform="translate(178.549502, 63.986864)"><g><path d="M 7.15625 -4.03125 C 7.15625 -3.445312 7.050781 -2.910156 6.84375 -2.421875 C 6.613281 -1.921875 6.316406 -1.492188 5.953125 -1.140625 C 5.578125 -0.785156 5.132812 -0.507812 4.625 -0.3125 C 4.125 -0.101562 3.582031 0 3 0 L 0.890625 0 L 0.890625 -8.078125 L 3 -8.078125 C 3.582031 -8.078125 4.125 -7.976562 4.625 -7.78125 C 5.132812 -7.570312 5.578125 -7.289062 5.953125 -6.9375 C 6.316406 -6.582031 6.613281 -6.160156 6.84375 -5.671875 C 7.050781 -5.171875 7.15625 -4.625 7.15625 -4.03125 Z M 6.359375 -4.03125 C 6.359375 -4.957031 6.03125 -5.726562 5.375 -6.34375 C 4.738281 -6.945312 3.957031 -7.25 3.03125 -7.25 L 1.71875 -7.25 L 1.71875 -0.828125 L 3.03125 -0.828125 C 3.957031 -0.828125 4.738281 -1.128906 5.375 -1.734375 C 6.03125 -2.347656 6.359375 -3.113281 6.359375 -4.03125 Z M 6.359375 -4.03125 "/></g></g></g><g fill="#8f8783" fill-opacity="1"><g transform="translate(187.617142, 63.986864)"><g><path d="M 8 -4.0625 C 8 -4.96875 7.675781 -5.75 7.03125 -6.40625 C 6.382812 -7.050781 5.597656 -7.375 4.671875 -7.375 C 3.765625 -7.375 2.988281 -7.050781 2.34375 -6.40625 C 1.6875 -5.75 1.359375 -4.96875 1.359375 -4.0625 C 1.359375 -3.144531 1.6875 -2.359375 2.34375 -1.703125 C 2.988281 -1.054688 3.765625 -0.734375 4.671875 -0.734375 C 5.597656 -0.734375 6.382812 -1.054688 7.03125 -1.703125 C 7.675781 -2.359375 8 -3.144531 8 -4.0625 Z M 8.828125 -4.0625 C 8.828125 -3.488281 8.722656 -2.953125 8.515625 -2.453125 C 8.296875 -1.941406 8 -1.5 7.625 -1.125 C 7.238281 -0.75 6.796875 -0.453125 6.296875 -0.234375 C 5.785156 -0.015625 5.242188 0.09375 4.671875 0.09375 C 4.109375 0.09375 3.578125 -0.015625 3.078125 -0.234375 C 2.566406 -0.453125 2.125 -0.75 1.75 -1.125 C 1.375 -1.5 1.078125 -1.941406 0.859375 -2.453125 C 0.640625 -2.953125 0.53125 -3.488281 0.53125 -4.0625 C 0.53125 -4.632812 0.640625 -5.171875 0.859375 -5.671875 C 1.078125 -6.179688 1.375 -6.625 1.75 -7 C 2.125 -7.363281 2.566406 -7.660156 3.078125 -7.890625 C 3.578125 -8.097656 4.109375 -8.203125 4.671875 -8.203125 C 5.242188 -8.203125 5.785156 -8.097656 6.296875 -7.890625 C 6.796875 -7.660156 7.238281 -7.363281 7.625 -7 C 8 -6.625 8.296875 -6.179688 8.515625 -5.671875 C 8.722656 -5.171875 8.828125 -4.632812 8.828125 -4.0625 Z M 8.828125 -4.0625 "/></g></g></g><g fill="#8f8783" fill-opacity="1"><g transform="translate(198.35825, 63.986864)"><g><path d="M 8 -4.0625 C 8 -4.96875 7.675781 -5.75 7.03125 -6.40625 C 6.382812 -7.050781 5.597656 -7.375 4.671875 -7.375 C 3.765625 -7.375 2.988281 -7.050781 2.34375 -6.40625 C 1.6875 -5.75 1.359375 -4.96875 1.359375 -4.0625 C 1.359375 -3.144531 1.6875 -2.359375 2.34375 -1.703125 C 2.988281 -1.054688 3.765625 -0.734375 4.671875 -0.734375 C 5.597656 -0.734375 6.382812 -1.054688 7.03125 -1.703125 C 7.675781 -2.359375 8 -3.144531 8 -4.0625 Z M 8.828125 -4.0625 C 8.828125 -3.488281 8.722656 -2.953125 8.515625 -2.453125 C 8.296875 -1.941406 8 -1.5 7.625 -1.125 C 7.238281 -0.75 6.796875 -0.453125 6.296875 -0.234375 C 5.785156 -0.015625 5.242188 0.09375 4.671875 0.09375 C 4.109375 0.09375 3.578125 -0.015625 3.078125 -0.234375 C 2.566406 -0.453125 2.125 -0.75 1.75 -1.125 C 1.375 -1.5 1.078125 -1.941406 0.859375 -2.453125 C 0.640625 -2.953125 0.53125 -3.488281 0.53125 -4.0625 C 0.53125 -4.632812 0.640625 -5.171875 0.859375 -5.671875 C 1.078125 -6.179688 1.375 -6.625 1.75 -7 C 2.125 -7.363281 2.566406 -7.660156 3.078125 -7.890625 C 3.578125 -8.097656 4.109375 -8.203125 4.671875 -8.203125 C 5.242188 -8.203125 5.785156 -8.097656 6.296875 -7.890625 C 6.796875 -7.660156 7.238281 -7.363281 7.625 -7 C 8 -6.625 8.296875 -6.179688 8.515625 -5.671875 C 8.722656 -5.171875 8.828125 -4.632812 8.828125 -4.0625 Z M 8.828125 -4.0625 "/></g></g></g><g fill="#8f8783" fill-opacity="1"><g transform="translate(209.099359, 63.986864)"><g><path d="M 1.71875 -3.984375 L 3.59375 -3.984375 C 4.0625 -3.984375 4.445312 -4.144531 4.75 -4.46875 C 5.0625 -4.789062 5.21875 -5.191406 5.21875 -5.671875 C 5.21875 -6.128906 5.070312 -6.515625 4.78125 -6.828125 C 4.476562 -7.128906 4.082031 -7.28125 3.59375 -7.28125 L 1.71875 -7.28125 Z M 6.046875 -5.640625 C 6.046875 -4.929688 5.796875 -4.347656 5.296875 -3.890625 C 4.847656 -3.472656 4.3125 -3.242188 3.6875 -3.203125 L 6.171875 0 L 5.0625 0 L 2.703125 -3.1875 L 1.71875 -3.1875 L 1.71875 0 L 0.890625 0 L 0.890625 -8.078125 L 3.484375 -8.078125 C 4.203125 -8.078125 4.804688 -7.847656 5.296875 -7.390625 C 5.796875 -6.921875 6.046875 -6.335938 6.046875 -5.640625 Z M 6.046875 -5.640625 "/></g></g></g><g fill="#8f8783" fill-opacity="1"><g transform="translate(216.932652, 63.986864)"><g><path d="M 3.140625 -3.8125 C 1.492188 -4.1875 0.671875 -4.890625 0.671875 -5.921875 C 0.671875 -6.679688 0.929688 -7.253906 1.453125 -7.640625 C 1.984375 -8.003906 2.609375 -8.1875 3.328125 -8.1875 C 4.898438 -8.1875 5.832031 -7.601562 6.125 -6.4375 L 5.21875 -6.4375 C 5.0625 -7.132812 4.429688 -7.484375 3.328125 -7.484375 C 2.546875 -7.484375 2.003906 -7.253906 1.703125 -6.796875 C 1.578125 -6.617188 1.515625 -6.398438 1.515625 -6.140625 C 1.515625 -5.640625 1.785156 -5.253906 2.328125 -4.984375 C 2.578125 -4.847656 3.113281 -4.675781 3.9375 -4.46875 C 4.757812 -4.25 5.359375 -4.007812 5.734375 -3.75 C 6.242188 -3.382812 6.5 -2.875 6.5 -2.21875 C 6.5 -1.40625 6.179688 -0.789062 5.546875 -0.375 C 5.003906 -0.0195312 4.335938 0.15625 3.546875 0.15625 C 1.753906 0.15625 0.71875 -0.523438 0.4375 -1.890625 L 1.421875 -1.890625 C 1.578125 -1.035156 2.285156 -0.609375 3.546875 -0.609375 C 4.453125 -0.609375 5.082031 -0.859375 5.4375 -1.359375 C 5.582031 -1.554688 5.65625 -1.820312 5.65625 -2.15625 C 5.65625 -2.488281 5.523438 -2.765625 5.265625 -2.984375 C 4.890625 -3.285156 4.179688 -3.5625 3.140625 -3.8125 Z M 3.140625 -3.8125 "/></g></g></g></svg>